Coordinates
version=1
nRows=5
nColumns=40
inDegrees=yes

Units are S.I. units (second, meters, Newtons, ...)
Angles are in degrees.

endheader
time	pelvis_tilt	pelvis_list	pelvis_rotation	pelvis_tx	pelvis_ty	pelvis_tz	hip_flexion_r	hip_adduction_r	hip_rotation_r	knee_angle_r	knee_angle_r_beta	ankle_angle_r	subtalar_angle_r	mtp_angle_r	hip_flexion_l	hip_adduction_l	hip_rotation_l	knee_angle_l	knee_angle_l_beta	ankle_angle_l	subtalar_angle_l	mtp_angle_l	lumbar_extension	lumbar_bending	lumbar_rotation	arm_flex_r	arm_add_r	arm_rot_r	elbow_flex_r	pro_sup_r	wrist_flex_r	wrist_dev_r	arm_flex_l	arm_add_l	arm_rot_l	elbow_flex_l	pro_sup_l	wrist_flex_l	wrist_dev_l
      0.00000000	     -2.78651989	     -2.01622698	     -6.02726929	     -0.84475505	      0.88113756	      1.52301631	     -1.04160513	     -2.62077548	    -13.98807752	    -20.13711151	     -0.35145890	     12.27773651	     -1.45161881	     -1.87601943	     33.93353180	      4.61292767	     12.15858286	    -47.99032727	     -0.83758922	      7.70017760	     18.20032551	     17.99613767	     -6.84656705	      1.37238394	      0.33694670	     -7.78307864	    -11.66360663	    -17.92263141	     57.72275818	     89.95437384	      0.00000000	      0.00000000	     -8.93546295	     10.17118754	     16.93335243	     27.22627368	     89.95437384	      0.00000000	      0.00000000
      0.01000000	     -2.84319528	     -2.09565182	     -5.80741288	     -0.83423301	      0.88039025	      1.52401773	     -1.98323313	     -2.51589122	    -14.19056434	    -19.76879632	     -0.34503058	     12.30529960	     -1.11524409	     -1.92405863	     34.41322207	      4.80296479	     12.39784617	    -45.00491617	     -0.78548397	      7.47823925	     18.03243583	     17.96469592	     -6.96555480	      1.42425430	      0.65276058	     -7.55628287	    -11.98004493	    -18.01808157	     59.43520387	     89.95437384	      0.00000000	      0.00000000	     -9.03008292	     10.19434128	     17.83827026	     25.44023350	     89.95437384	      0.00000000	      0.00000000
      0.02000000	     -2.89573063	     -2.09836752	     -5.59383709	     -0.82348310	      0.87953714	      1.52498944	     -2.84265275	     -2.54480421	    -14.59712367	    -19.56503596	     -0.34147430	     12.13344789	     -0.66296699	     -2.01967518	     34.74280133	      4.89628040	     12.76339596	    -41.71213641	     -0.72801412	      6.89390610	     17.64458503	     17.64207228	     -7.05960395	      1.33733041	      0.82141401	     -7.26081332	    -12.24615187	    -18.01877323	     61.00463244	     89.95437384	      0.00000000	      0.00000000	     -9.42034094	     10.20443498	     19.14345246	     24.23846306	     89.95437384	      0.00000000	      0.00000000
      0.03000000	     -3.31472172	     -2.35954684	     -5.45592299	     -0.81285456	      0.87805196	      1.52604901	     -3.23206473	     -2.24339432	    -14.87958046	    -19.51202276	     -0.34054904	     12.00956564	     -0.49497483	     -2.03211794	     35.53862355	      5.32232440	     12.97920591	    -38.81801244	     -0.67750213	      6.57356675	     16.98148743	     17.44744646	     -6.75960468	      1.57887053	      1.00724631	     -7.01641821	    -12.59811773	    -17.86274537	     62.51511932	     89.95437384	      0.00000000	      0.00000000	    -10.04268579	     10.31325789	     19.53188027	     23.35810289	     89.95437384	      0.00000000	      0.00000000
      0.04000000	     -3.36010437	     -2.26631357	     -5.22445390	     -0.80175351	      0.87728886	      1.52660958	     -4.04377277	     -2.40554133	    -15.20469041	    -19.41004426	     -0.33876918	     11.72284895	     -0.05962496	     -2.09731131	     35.74000756	      5.26340780	     13.44913697	    -35.78214282	     -0.62451621	      6.07183334	     16.27868961	     17.06858140	     -6.80750505	      1.41570140	      1.13501605	     -6.76771660	    -12.71539947	    -18.07377647	     63.90707541	     89.95437384	      0.00000000	      0.00000000	     -9.95854282	     10.36538266	     20.70249449	     21.39393211	     89.95437384	      0.00000000	      0.00000000
